#define im_width 50
#define im_height 28
static char im_bits[] = {
0x00,0x00,0x00,0x00,0x00,0x00,0x00,0x00,0x00,0x00,0x00,0x00,0x00,0x00,0x00,
0x00,0x00,0x00,0x00,0x00,0x00,0x00,0x00,0x00,0x00,0x00,0x00,0x00,0x00,0x00,
0x00,0x00,0x00,0x00,0x00,0x00,0x00,0x00,0x00,0x00,0x00,0x00,0x00,0x00,0x00,
0x00,0x00,0x00,0x00,0x00,0x00,0x00,0x00,0x00,0x00,0x00,0x00,0x00,0x00,0x00,
0x00,0x00,0x00,0x00,0x00,0x00,0x00,0x00,0x00,0x00,0x00,0x00,0x00,0x00,0x00,
0x00,0x00,0x20,0x50,0x40,0x00,0x00,0x00,0x00,0x50,0x90,0x20,0x00,0x00,0x00,
0x00,0x50,0x90,0x20,0x00,0x00,0x00,0x00,0x50,0x10,0x11,0x1c,0x38,0x74,0x00,
0x88,0x10,0x0a,0x22,0x44,0x8c,0x00,0x88,0x10,0x0a,0x41,0x82,0x84,0x00,0x88,
0x10,0x04,0x41,0x82,0x84,0x00,0xfc,0x11,0x04,0x7f,0x82,0x84,0x00,0x04,0x11,
0x04,0x01,0x82,0x84,0x00,0x04,0x11,0x04,0x41,0x82,0x84,0x00,0x02,0x12,0x04,
0x22,0x44,0x84,0x00,0x02,0x12,0x04,0x1c,0x38,0x84,0x00,0x00,0x00,0x00,0x00,
0x00,0x00,0x00,0x00,0x00,0x00,0x00,0x00,0x00,0x00,0x00,0x00,0x00,0x00,0x00,
0x00,0x00,0x00,0x00,0x00,0x00,0x00,0x00,0x00,0x00,0x00,0x00,0x00,0x00,0x00,
0x00
};
