#ifndef USERPREFS_HAS_SPLASH
#define icon_width 50
#define icon_height 22
static unsigned char icon_bits[] = {
 0x00,0x00,0x00,0x00,0x00,0x00,0x00,0x00,0x00,0x00,0x00,0x00,
 0x00,0x00,0x00,0x00,0x00,0x00,0x00,0x00,0x00,0x00,0x00,0x00,
 0x00,0x00,0x00,0x00,0x00,0x00,0x00,0x00,0x00,0x00,0x00,0x40,
 0x20,0x01,0x01,0x00,0x00,0x00,0xC0,0x20,0x82,0x00,0x00,0x00,
 0x00,0x20,0x20,0x42,0x00,0x00,0x00,0x00,0x20,0x21,0x44,0x78,
 0x78,0xF8,0x00,0x20,0x21,0x28,0x88,0x8C,0x88,0x00,0x10,0x22,
 0x18,0x04,0x05,0x01,0x00,0x70,0x23,0x10,0xFC,0x05,0x01,0x00,
 0x08,0x22,0x10,0x04,0x04,0x01,0x00,0x08,0x24,0x10,0x04,0x84,
 0x00,0x00,0x08,0x24,0x10,0x88,0x88,0x00,0x00,0x00,0x00,0x00,
 0x20,0x20,0x00,0x00,0x00,0x00,0x00,0x00,0x00,0x00,0x00,0x00,
 0x00,0x00,0x00,0x00,0x00,0x00,0x00,0x00,0x00,0x00,0x00,0x00,
 0x00,0x00,0x00,0x00,0x00,0x00,0x00,0x00,0x00,0x00,0x00,0x00,
 0x00,0x00,0x00,0x00,0x00,0x00,0x00,0x00,0x00,0x00};
#endif
